# xmcd
#
# Track frame offsets:
#	150
#	12361
#	22283
#	35967
#	48332
#	64064
#	76859
#	92379
#	109052
#	120147
#	133983
#	145331
#	155734
#
# Disc length: 2204 seconds
# Revision: 0
# Processed by: cddbd v1.5.2PL0 Copyright (c) Steve Scherf et al.
# Submitted via: dBpowerAMP V12.0
#
DISCID=af089a0d
DTITLE=Kenny and Amanda Smith Band - House Down the Block
DYEAR=2004
DGENRE=Bluegrass
TTITLE0=Where Love Went Wrong
TTITLE1=I Know Where Love Lives
TTITLE2=The Girl Next Door
TTITLE3=Without a Trace
TTITLE4=It's Not the Wind
TTITLE5=All She Ever Wants
TTITLE6=I've Traveled Down This Lonesome Road Before
TTITLE7=Song for Emily
TTITLE8=Why Don't You Just Say Goodbye
TTITLE9=Stay a Little Longer
TTITLE10=House Down the Block
TTITLE11=Never Win Again
TTITLE12=Big Ball in Boston
EXTD=
EXTT0=
EXTT1=
EXTT2=
EXTT3=
EXTT4=
EXTT5=
EXTT6=
EXTT7=
EXTT8=
EXTT9=
EXTT10=
EXTT11=
EXTT12=
PLAYORDER=
